<svg xmlns="http://www.w3.org/2000/svg" width="1200" height="675" viewBox="0 0 1200 675">
  <defs>
    <linearGradient id="sky4" x1="0" y1="0" x2="0" y2="1">
      <stop offset="0" stop-color="#f472b6" stop-opacity="0.22"/>
      <stop offset="0.5" stop-color="#a78bfa" stop-opacity="0.35"/>
      <stop offset="1" stop-color="#0b1220" stop-opacity="1"/>
    </linearGradient>
    <linearGradient id="road4" x1="0" y1="0" x2="0" y2="1">
      <stop offset="0" stop-color="#111827"/>
      <stop offset="1" stop-color="#020617"/>
    </linearGradient>
  </defs>
  <rect width="1200" height="675" fill="url(#sky4)"/>
  <path d="M0 450 L1200 340 L1200 675 L0 675 Z" fill="rgba(255,255,255,0.04)"/>
  <path d="M0 550 L1200 430 L1200 675 L0 675 Z" fill="url(#road4)"/>
  <g stroke="rgba(255,255,255,0.22)" stroke-width="6" stroke-linecap="round" stroke-dasharray="18 16">
    <path d="M600 545 C640 500, 690 450, 740 400"/>
    <path d="M560 600 C610 555, 660 505, 710 455"/>
    <path d="M520 655 C575 615, 630 560, 685 515"/>
  </g>
  <g opacity="0.9">
    <rect x="110" y="245" width="180" height="255" rx="18" fill="rgba(255,255,255,0.06)" stroke="rgba(255,255,255,0.10)"/>
    <rect x="330" y="220" width="170" height="285" rx="18" fill="rgba(255,255,255,0.05)" stroke="rgba(255,255,255,0.10)"/>
    <rect x="830" y="205" width="200" height="305" rx="18" fill="rgba(255,255,255,0.05)" stroke="rgba(255,255,255,0.10)"/>
    <rect x="645" y="195" width="170" height="315" rx="18" fill="rgba(255,255,255,0.06)" stroke="rgba(255,255,255,0.10)"/>
  </g>
  <text x="60" y="80" fill="rgba(255,255,255,0.72)" font-family="ui-sans-serif, system-ui" font-size="34" font-weight="700">Street View</text>
</svg>

